<?xml version="1.0" encoding="UTF-8" standalone="no"?>
<!DOCTYPE svg PUBLIC "-//W3C//DTD SVG 1.1//EN" "http://www.w3.org/Graphics/SVG/1.1/DTD/svg11.dtd">
<svg version="1.1" xmlns="http://www.w3.org/2000/svg" xmlns:xlink="http://www.w3.org/1999/xlink" preserveAspectRatio="xMidYMid meet" viewBox="0 0 640 640" width="640" height="640"><defs><path d="M0 0L640 0L640 640L0 640L0 0Z" id="an21UhsIj"></path><path d="M475.79 124.17L476.23 124.27L476.67 124.38L477.09 124.52L477.52 124.68L477.93 124.87L478.34 125.08L478.74 125.32L479.13 125.59L479.51 125.88L479.89 126.21L480.26 126.56L533.29 179.59L533.65 179.96L533.97 180.34L534.27 180.73L534.54 181.13L534.79 181.54L535.01 181.95L535.21 182.38L535.39 182.81L535.54 183.25L535.67 183.7L535.77 184.16L535.85 184.62L535.91 185.09L535.95 185.56L535.97 186.05L535.97 186.53L535.95 187.03L535.91 187.53L535.85 188.04L535.77 188.55L535.68 189.06L535.57 189.58L535.44 190.11L535.29 190.64L535.13 191.17L534.95 191.71L534.76 192.25L534.55 192.79L534.33 193.34L534.09 193.89L533.84 194.44L533.58 194.99L533.31 195.55L533.02 196.11L532.72 196.67L532.42 197.23L532.1 197.79L531.77 198.35L531.43 198.91L531.08 199.48L514.04 228.91L516.55 233.52L520.16 240.83L523.49 248.29L526.54 255.9L529.29 263.65L531.67 271.28L564.38 280L565.02 280.15L565.66 280.31L566.29 280.48L566.91 280.65L567.52 280.83L568.13 281.01L568.73 281.21L569.31 281.41L569.89 281.61L570.46 281.83L571.01 282.05L571.55 282.28L572.09 282.52L572.6 282.76L573.11 283.01L573.6 283.28L574.08 283.55L574.54 283.83L574.99 284.12L575.42 284.41L575.84 284.72L576.24 285.04L576.62 285.36L576.98 285.7L577.33 286.04L577.66 286.4L577.97 286.76L578.26 287.14L578.52 287.52L578.77 287.92L579 288.32L579.2 288.74L579.39 289.17L579.55 289.61L579.68 290.06L579.8 290.53L579.88 291L579.95 291.49L579.99 291.99L580 292.5L580 367.5L579.99 368.01L579.95 368.5L579.88 368.98L579.8 369.45L579.68 369.9L579.55 370.34L579.39 370.77L579.2 371.18L579 371.58L578.77 371.97L578.52 372.35L578.26 372.71L577.97 373.07L577.66 373.41L577.33 373.75L576.98 374.07L576.62 374.39L576.24 374.7L575.84 375L575.42 375.29L574.99 375.57L574.54 375.85L574.08 376.11L573.6 376.38L573.11 376.63L572.6 376.88L572.09 377.13L571.55 377.37L571.01 377.6L570.46 377.84L569.89 378.06L569.31 378.29L568.73 378.51L568.13 378.73L567.52 378.94L566.91 379.16L566.29 379.37L565.66 379.58L565.02 379.79L564.38 380L531.67 388.72L529.29 396.34L526.54 404.1L523.49 411.71L520.16 419.17L516.55 426.47L514.08 431.01L531.08 460.37L531.43 460.94L531.77 461.5L532.1 462.06L532.42 462.62L532.72 463.18L533.02 463.74L533.31 464.3L533.58 464.86L533.84 465.41L534.09 465.96L534.33 466.51L534.55 467.06L534.76 467.6L534.95 468.14L535.13 468.68L535.29 469.21L535.44 469.74L535.57 470.27L535.68 470.79L535.77 471.3L535.85 471.82L535.91 472.32L535.95 472.82L535.97 473.32L535.97 473.8L535.95 474.29L535.91 474.76L535.85 475.23L535.77 475.7L535.67 476.15L535.54 476.6L535.39 477.04L535.21 477.47L535.01 477.9L534.79 478.31L534.54 478.72L534.27 479.12L533.97 479.51L533.65 479.89L533.29 480.26L480.26 533.29L479.89 533.64L479.51 533.97L479.13 534.26L478.74 534.53L478.34 534.77L477.93 534.98L477.52 535.17L477.09 535.33L476.67 535.47L476.23 535.58L475.79 535.68L475.34 535.75L474.89 535.79L474.42 535.82L473.95 535.82L473.48 535.81L473 535.77L472.51 535.72L472.02 535.65L471.52 535.56L471.01 535.46L470.5 535.33L469.98 535.2L469.46 535.05L468.93 534.88L468.39 534.7L467.85 534.5L467.31 534.3L466.76 534.08L466.2 533.85L465.64 533.61L465.08 533.36L464.5 533.1L463.93 532.84L463.35 532.56L462.76 532.28L462.17 531.99L461.58 531.69L460.98 531.39L460.37 531.08L431.01 514.08L426.48 516.54L419.17 520.15L411.71 523.48L404.1 526.53L396.35 529.28L388.72 531.66L380 564.37L379.79 565.02L379.58 565.66L379.37 566.29L379.16 566.91L378.94 567.52L378.73 568.13L378.51 568.72L378.29 569.31L378.06 569.89L377.84 570.45L377.61 571.01L377.37 571.55L377.13 572.08L376.88 572.6L376.63 573.11L376.38 573.6L376.12 574.08L375.85 574.54L375.57 574.99L375.29 575.42L375 575.84L374.7 576.24L374.39 576.62L374.07 576.98L373.75 577.33L373.41 577.66L373.07 577.97L372.71 578.25L372.35 578.52L371.97 578.77L371.58 579L371.18 579.2L370.77 579.39L370.34 579.55L369.9 579.68L369.45 579.8L368.99 579.88L368.51 579.95L368.01 579.99L367.5 580L292.5 580L291.99 579.99L291.49 579.95L291 579.88L290.53 579.8L290.06 579.68L289.61 579.55L289.17 579.39L288.74 579.2L288.33 579L287.92 578.77L287.52 578.52L287.14 578.25L286.76 577.97L286.4 577.66L286.04 577.33L285.7 576.98L285.36 576.62L285.04 576.24L284.72 575.84L284.41 575.42L284.12 574.99L283.83 574.54L283.55 574.08L283.28 573.6L283.02 573.11L282.76 572.6L282.52 572.08L282.28 571.55L282.05 571.01L281.83 570.45L281.61 569.89L281.41 569.31L281.21 568.72L281.01 568.13L280.83 567.52L280.65 566.91L280.48 566.29L280.31 565.66L280.15 565.02L280 564.37L271.28 531.66L263.66 529.28L255.91 526.53L248.3 523.48L240.84 520.15L233.53 516.54L228.86 514.01L199.63 530.93L199.06 531.28L198.5 531.62L197.94 531.95L197.38 532.27L196.82 532.57L196.26 532.87L195.7 533.16L195.14 533.43L194.59 533.69L194.04 533.94L193.49 534.18L192.94 534.4L192.4 534.61L191.86 534.8L191.32 534.98L190.79 535.14L190.26 535.29L189.73 535.42L189.21 535.53L188.7 535.62L188.19 535.7L187.68 535.76L187.18 535.8L186.68 535.82L186.2 535.82L185.71 535.8L185.24 535.76L184.77 535.7L184.31 535.62L183.85 535.52L183.4 535.39L182.96 535.24L182.53 535.06L182.1 534.86L181.69 534.64L181.28 534.39L180.88 534.12L180.49 533.82L180.11 533.5L179.74 533.14L126.71 480.11L126.36 479.74L126.03 479.36L125.74 478.98L125.47 478.59L125.23 478.19L125.02 477.78L124.83 477.37L124.67 476.94L124.53 476.52L124.42 476.08L124.32 475.64L124.26 475.19L124.21 474.74L124.18 474.27L124.18 473.8L124.19 473.33L124.23 472.85L124.28 472.36L124.35 471.87L124.44 471.37L124.54 470.86L124.67 470.35L124.8 469.83L124.96 469.31L125.12 468.78L125.3 468.25L125.5 467.7L125.7 467.16L125.92 466.61L126.15 466.05L126.39 465.49L126.64 464.93L126.9 464.35L127.16 463.78L127.44 463.2L127.72 462.61L128.01 462.02L128.31 461.43L128.61 460.83L128.92 460.22L145.88 430.93L143.46 426.47L139.85 419.17L136.52 411.71L133.47 404.1L130.72 396.34L128.35 388.72L95.63 380L94.98 379.79L94.34 379.58L93.71 379.37L93.09 379.16L92.48 378.94L91.87 378.73L91.28 378.51L90.69 378.29L90.11 378.06L89.55 377.84L88.99 377.6L88.45 377.37L87.92 377.13L87.4 376.88L86.89 376.63L86.4 376.38L85.92 376.11L85.46 375.85L85.01 375.57L84.58 375.29L84.16 375L83.76 374.7L83.38 374.39L83.02 374.07L82.67 373.75L82.34 373.41L82.03 373.07L81.75 372.71L81.48 372.35L81.23 371.97L81 371.58L80.8 371.18L80.62 370.77L80.46 370.34L80.32 369.9L80.21 369.45L80.12 368.98L80.05 368.5L80.01 368.01L80 367.5L80 292.5L80.01 291.99L80.05 291.49L80.12 291L80.21 290.53L80.32 290.06L80.46 289.61L80.62 289.17L80.8 288.74L81 288.32L81.23 287.92L81.48 287.52L81.75 287.14L82.03 286.76L82.34 286.4L82.67 286.04L83.02 285.7L83.38 285.36L83.76 285.04L84.16 284.72L84.58 284.41L85.01 284.12L85.46 283.83L85.92 283.55L86.4 283.28L86.89 283.01L87.4 282.76L87.92 282.52L88.45 282.28L88.99 282.05L89.55 281.83L90.11 281.61L90.69 281.41L91.28 281.21L91.87 281.01L92.48 280.83L93.09 280.65L93.71 280.48L94.34 280.31L94.98 280.15L95.63 280L128.34 271.28L130.72 263.65L133.47 255.9L136.52 248.29L139.85 240.83L143.46 233.52L145.92 229L128.92 199.63L128.61 199.02L128.31 198.42L128.01 197.83L127.72 197.24L127.44 196.65L127.16 196.07L126.9 195.5L126.64 194.93L126.39 194.36L126.15 193.8L125.92 193.24L125.7 192.69L125.5 192.15L125.3 191.61L125.12 191.07L124.96 190.54L124.8 190.02L124.67 189.5L124.54 188.99L124.44 188.48L124.35 187.98L124.28 187.49L124.23 187L124.19 186.52L124.18 186.05L124.18 185.58L124.21 185.12L124.26 184.66L124.32 184.21L124.42 183.77L124.53 183.33L124.67 182.91L124.83 182.48L125.02 182.07L125.23 181.66L125.47 181.26L125.74 180.87L126.03 180.49L126.36 180.11L126.71 179.74L179.74 126.71L180.11 126.35L180.49 126.03L180.88 125.73L181.28 125.46L181.69 125.21L182.1 124.99L182.53 124.79L182.96 124.61L183.4 124.46L183.85 124.34L184.31 124.23L184.77 124.15L185.24 124.09L185.71 124.05L186.2 124.03L186.68 124.03L187.18 124.05L187.68 124.09L188.19 124.15L188.7 124.23L189.21 124.32L189.73 124.43L190.26 124.56L190.79 124.71L191.32 124.87L191.86 125.05L192.4 125.24L192.94 125.45L193.49 125.67L194.04 125.91L194.59 126.16L195.14 126.42L195.7 126.69L196.26 126.98L196.82 127.28L197.38 127.58L197.94 127.9L198.5 128.23L199.06 128.57L199.63 128.92L228.99 145.92L233.53 143.45L240.84 139.84L248.3 136.51L255.91 133.47L263.66 130.71L271.28 128.34L280 95.62L280.15 94.98L280.31 94.34L280.48 93.71L280.65 93.09L280.83 92.48L281.01 91.87L281.21 91.28L281.41 90.69L281.61 90.11L281.83 89.55L282.05 88.99L282.28 88.45L282.52 87.92L282.76 87.4L283.02 86.89L283.28 86.4L283.55 85.92L283.83 85.46L284.12 85.01L284.41 84.58L284.72 84.16L285.04 83.76L285.36 83.38L285.7 83.02L286.04 82.67L286.4 82.34L286.76 82.03L287.14 81.75L287.52 81.48L287.92 81.23L288.33 81L288.74 80.8L289.17 80.61L289.61 80.45L290.06 80.32L290.53 80.2L291 80.12L291.49 80.05L291.99 80.01L292.5 80L367.5 80L368.01 80.01L368.51 80.05L368.99 80.12L369.45 80.2L369.9 80.32L370.34 80.45L370.77 80.61L371.18 80.8L371.58 81L371.97 81.23L372.35 81.48L372.71 81.75L373.07 82.03L373.41 82.34L373.75 82.67L374.07 83.02L374.39 83.38L374.7 83.76L375 84.16L375.29 84.58L375.57 85.01L375.85 85.46L376.12 85.92L376.38 86.4L376.63 86.89L376.88 87.4L377.13 87.92L377.37 88.45L377.61 88.99L377.84 89.55L378.06 90.11L378.29 90.69L378.51 91.28L378.73 91.87L378.94 92.48L379.16 93.09L379.37 93.71L379.58 94.34L379.79 94.98L380 95.62L388.72 128.34L396.35 130.71L404.1 133.47L411.71 136.51L419.17 139.84L426.48 143.45L430.87 145.84L460.37 128.77L460.98 128.46L461.58 128.16L462.17 127.86L462.76 127.57L463.35 127.29L463.93 127.01L464.5 126.75L465.08 126.49L465.64 126.24L466.2 126L466.76 125.77L467.31 125.55L467.85 125.35L468.39 125.15L468.93 124.97L469.46 124.81L469.98 124.65L470.5 124.52L471.01 124.39L471.52 124.29L472.02 124.2L472.51 124.13L473 124.08L473.48 124.04L473.95 124.03L474.42 124.03L474.89 124.06L475.34 124.11L475.34 124.11L475.79 124.17Z" id="a1PgWbB2BC"></path><radialGradient id="gradientb1h2mrGys" gradientUnits="userSpaceOnUse" cx="325.05" cy="314.61" r="311.49"><stop style="stop-color: #928a8a;stop-opacity: 1" offset="0%"></stop><stop style="stop-color: #010000;stop-opacity: 1" offset="100%"></stop></radialGradient></defs><g><g><g><use xlink:href="#an21UhsIj" opacity="1" fill="#a20e0b" fill-opacity="1"></use></g><g><use xlink:href="#a1PgWbB2BC" opacity="1" fill="url(#gradientb1h2mrGys)"></use></g></g></g></svg>