<?xml version="1.0" encoding="UTF-8" standalone="no"?>
<!DOCTYPE svg PUBLIC "-//W3C//DTD SVG 1.1//EN" "http://www.w3.org/Graphics/SVG/1.1/DTD/svg11.dtd">
<svg version="1.1" xmlns="http://www.w3.org/2000/svg" xmlns:xlink="http://www.w3.org/1999/xlink" preserveAspectRatio="xMidYMid meet" viewBox="0 0 640 640" width="640" height="640"><defs><path d="M0 0L641.74 0L641.74 642.68L0 642.68L0 0Z" id="ih7m0Otat"></path><path d="M398.41 302.55L277.23 373.21L277.24 231.87L277.25 90.52L398.42 161.2L519.6 231.88L398.41 302.55Z" id="a6JViByHBN"></path><path d="M271.66 87.56C278.38 87.56 283.82 93 283.82 99.72C283.82 196.33 283.82 473.99 283.82 570.6C283.82 577.31 278.38 582.76 271.66 582.76C260.39 582.76 238.76 582.76 227.49 582.76C220.78 582.76 215.33 577.31 215.33 570.6C215.33 473.99 215.33 196.33 215.33 99.72C215.33 93 220.78 87.56 227.49 87.56C238.76 87.56 260.39 87.56 271.66 87.56Z" id="c8Srhefx7"></path></defs><g><g><g><use xlink:href="#ih7m0Otat" opacity="1" fill="#fbc900" fill-opacity="1"></use></g><g><g><filter id="shadow9907661" x="266.23" y="79.52" width="267.37" height="307.69" filterUnits="userSpaceOnUse" primitiveUnits="userSpaceOnUse"><feFlood></feFlood><feComposite in2="SourceAlpha" operator="in"></feComposite><feGaussianBlur stdDeviation="1"></feGaussianBlur><feOffset dx="3" dy="3" result="afterOffset"></feOffset><feFlood flood-color="#000000" flood-opacity="0.5"></feFlood><feComposite in2="afterOffset" operator="in"></feComposite><feMorphology operator="dilate" radius="1"></feMorphology><feComposite in2="SourceAlpha" operator="out"></feComposite></filter><path d="M398.41 302.55L277.23 373.21L277.24 231.87L277.25 90.52L398.42 161.2L519.6 231.88L398.41 302.55Z" id="f2CFXGXlF" fill="white" fill-opacity="1" filter="url(#shadow9907661)"></path></g><use xlink:href="#a6JViByHBN" opacity="1" fill="#ff0000" fill-opacity="1"></use></g><g><use xlink:href="#c8Srhefx7" opacity="1" fill="#41240b" fill-opacity="1"></use></g></g></g></svg>